<svg width="223" height="40" viewBox="0 0 223 40" fill="none" xmlns="http://www.w3.org/2000/svg">
<g filter="url(#filter0_i_1_8)">
<path d="M28.8564 21.6562V32.3428L16 37.9092L3.14355 32.3428V21.6562L16 16.0898L28.8564 21.6562Z" stroke="#E9F355" stroke-width="2"/>
</g>
<g filter="url(#filter1_i_1_8)">
<path d="M28.8564 7.65625V18.3428L16 23.9092L3.14355 18.3428V7.65625L16 2.08984L28.8564 7.65625Z" stroke="#E9F355" stroke-opacity="0.5" stroke-width="2"/>
</g>
<path d="M54.06 13.64H50.964C50.892 10.28 48.744 8.6 44.52 8.6C42.792 8.6 41.4 8.996 40.344 9.788C39.288 10.556 38.76 11.576 38.76 12.848C38.76 13.808 39.072 14.576 39.696 15.152C40.344 15.704 41.448 16.184 43.008 16.592L49.128 18.176C53.016 19.208 54.96 21.368 54.96 24.656C54.96 27.032 54.012 28.964 52.116 30.452C50.436 31.748 48.024 32.396 44.88 32.396C40.896 32.396 38.004 31.196 36.204 28.796C35.244 27.5 34.74 25.76 34.692 23.576H37.788V23.648C37.788 25.52 38.424 26.972 39.696 28.004C40.992 29.012 42.792 29.516 45.096 29.516C47.208 29.516 48.78 29.168 49.812 28.472C51.036 27.632 51.648 26.456 51.648 24.944C51.648 23.024 50.076 21.668 46.932 20.876L40.524 19.22C37.164 18.356 35.484 16.376 35.484 13.28C35.484 10.832 36.408 8.936 38.256 7.592C39.864 6.416 41.988 5.828 44.628 5.828C48.372 5.828 51.048 6.92 52.656 9.104C53.592 10.376 54.06 11.756 54.06 13.244C54.06 13.316 54.06 13.448 54.06 13.64ZM66.3098 13.496V15.872H62.5298V28.184C62.5298 28.616 62.6738 28.988 62.9618 29.3C63.2738 29.588 63.6698 29.732 64.1498 29.732C64.6058 29.732 65.3018 29.624 66.2378 29.408L66.5618 32C65.0738 32.264 63.9458 32.396 63.1778 32.396C60.8018 32.396 59.6138 31.424 59.6138 29.48V15.872H57.0938V13.496H59.6138V9.716L62.5298 8.384V13.496H66.3098ZM76.9973 13.1C79.7813 13.1 81.9053 14.072 83.3693 16.016C84.6653 17.696 85.3133 19.976 85.3133 22.856C85.3133 26.072 84.4733 28.52 82.7933 30.2C81.3533 31.664 79.4093 32.396 76.9613 32.396C74.1293 32.396 71.9693 31.448 70.4813 29.552C69.1853 27.896 68.5373 25.664 68.5373 22.856C68.5373 19.592 69.3893 17.084 71.0933 15.332C72.5573 13.844 74.5253 13.1 76.9973 13.1ZM76.9973 15.8C75.3173 15.8 73.9973 16.436 73.0373 17.708C72.0773 18.956 71.5973 20.672 71.5973 22.856C71.5973 25.136 72.1373 26.876 73.2173 28.076C74.1533 29.132 75.4013 29.66 76.9613 29.66C78.6173 29.66 79.9013 29.06 80.8133 27.86C81.7493 26.66 82.2173 24.992 82.2173 22.856C82.2173 20.504 81.6893 18.704 80.6333 17.456C79.7213 16.352 78.5093 15.8 76.9973 15.8ZM103.562 19.688H100.61C100.25 17.096 98.7857 15.8 96.2177 15.8C94.6097 15.8 93.3497 16.436 92.4377 17.708C91.5257 18.98 91.0697 20.744 91.0697 23C91.0697 25.232 91.6097 26.936 92.6897 28.112C93.6017 29.144 94.8257 29.66 96.3617 29.66C98.8337 29.66 100.31 28.316 100.79 25.628H103.778C103.586 27.932 102.758 29.672 101.294 30.848C100.022 31.88 98.3537 32.396 96.2897 32.396C93.5777 32.396 91.4657 31.436 89.9537 29.516C88.6577 27.86 88.0097 25.688 88.0097 23C88.0097 19.784 88.8617 17.264 90.5657 15.44C92.0297 13.88 93.9257 13.1 96.2537 13.1C98.9417 13.1 100.958 14 102.302 15.8C102.998 16.736 103.418 18.032 103.562 19.688ZM109.581 6.224V21.344L117.429 13.496H121.245L114.801 19.868L122.361 32H118.725L112.461 21.956L109.581 24.764V32H106.665V6.224H109.581Z" fill="#FAFAFA"/>
<path d="M143.357 13.64H140.261C140.189 10.28 138.041 8.6 133.817 8.6C132.089 8.6 130.697 8.996 129.641 9.788C128.585 10.556 128.057 11.576 128.057 12.848C128.057 13.808 128.369 14.576 128.993 15.152C129.641 15.704 130.745 16.184 132.305 16.592L138.425 18.176C142.313 19.208 144.257 21.368 144.257 24.656C144.257 27.032 143.309 28.964 141.413 30.452C139.733 31.748 137.321 32.396 134.177 32.396C130.193 32.396 127.301 31.196 125.501 28.796C124.541 27.5 124.037 25.76 123.989 23.576H127.085V23.648C127.085 25.52 127.721 26.972 128.993 28.004C130.289 29.012 132.089 29.516 134.393 29.516C136.505 29.516 138.077 29.168 139.109 28.472C140.333 27.632 140.945 26.456 140.945 24.944C140.945 23.024 139.373 21.668 136.229 20.876L129.821 19.22C126.461 18.356 124.781 16.376 124.781 13.28C124.781 10.832 125.705 8.936 127.553 7.592C129.161 6.416 131.285 5.828 133.925 5.828C137.669 5.828 140.345 6.92 141.953 9.104C142.889 10.376 143.357 11.756 143.357 13.244C143.357 13.316 143.357 13.448 143.357 13.64ZM163.995 23.612H150.351C150.375 25.196 150.711 26.456 151.359 27.392C152.391 28.904 153.879 29.66 155.823 29.66C158.223 29.66 159.843 28.52 160.683 26.24H163.635C163.251 28.184 162.363 29.696 160.971 30.776C159.579 31.856 157.827 32.396 155.715 32.396C152.907 32.396 150.759 31.436 149.271 29.516C147.951 27.836 147.291 25.616 147.291 22.856C147.291 19.664 148.155 17.18 149.883 15.404C151.395 13.868 153.351 13.1 155.751 13.1C157.503 13.1 159.039 13.52 160.359 14.36C161.703 15.2 162.663 16.352 163.239 17.816C163.743 19.064 163.995 20.96 163.995 23.504V23.612ZM160.827 21.2C160.827 19.592 160.347 18.296 159.387 17.312C158.451 16.304 157.239 15.8 155.751 15.8C154.239 15.8 153.003 16.292 152.043 17.276C151.107 18.236 150.579 19.544 150.459 21.2H160.827ZM168.023 13.496H170.759V16.628C172.247 14.276 174.287 13.1 176.879 13.1C178.679 13.1 180.107 13.556 181.163 14.468C182.219 15.356 182.747 16.556 182.747 18.068V32H179.831V19.256C179.831 18.152 179.483 17.276 178.787 16.628C178.115 15.98 177.191 15.656 176.015 15.656C174.479 15.656 173.255 16.22 172.343 17.348C171.431 18.476 170.975 19.976 170.975 21.848V32H168.023V13.496ZM200.815 18.572H197.575C197.479 16.724 196.243 15.8 193.867 15.8C192.643 15.8 191.671 16.04 190.951 16.52C190.255 16.976 189.907 17.6 189.907 18.392C189.907 19.592 191.047 20.456 193.327 20.984L196.171 21.632C198.019 22.064 199.351 22.676 200.167 23.468C200.983 24.26 201.391 25.34 201.391 26.708C201.391 28.46 200.707 29.852 199.339 30.884C197.971 31.892 196.123 32.396 193.795 32.396C191.251 32.396 189.319 31.796 187.999 30.596C186.895 29.612 186.307 28.304 186.235 26.672H189.583C189.775 27.512 190.039 28.124 190.375 28.508C191.023 29.276 192.235 29.66 194.011 29.66C195.331 29.66 196.375 29.42 197.143 28.94C197.935 28.436 198.331 27.776 198.331 26.96C198.331 25.736 197.383 24.896 195.487 24.44L192.715 23.792C190.603 23.288 189.127 22.688 188.287 21.992C187.327 21.2 186.847 20.06 186.847 18.572C186.847 16.892 187.483 15.56 188.755 14.576C190.051 13.592 191.779 13.1 193.939 13.1C196.195 13.1 197.947 13.664 199.195 14.792C200.275 15.776 200.815 17.036 200.815 18.572ZM220.983 23.612H207.339C207.363 25.196 207.699 26.456 208.347 27.392C209.379 28.904 210.867 29.66 212.811 29.66C215.211 29.66 216.831 28.52 217.671 26.24H220.623C220.239 28.184 219.351 29.696 217.959 30.776C216.567 31.856 214.815 32.396 212.703 32.396C209.895 32.396 207.747 31.436 206.259 29.516C204.939 27.836 204.279 25.616 204.279 22.856C204.279 19.664 205.143 17.18 206.871 15.404C208.383 13.868 210.339 13.1 212.739 13.1C214.491 13.1 216.027 13.52 217.347 14.36C218.691 15.2 219.651 16.352 220.227 17.816C220.731 19.064 220.983 20.96 220.983 23.504V23.612ZM217.815 21.2C217.815 19.592 217.335 18.296 216.375 17.312C215.439 16.304 214.227 15.8 212.739 15.8C211.227 15.8 209.991 16.292 209.031 17.276C208.095 18.236 207.567 19.544 207.447 21.2H217.815Z" fill="#E9F355"/>
<defs>
<filter id="filter0_i_1_8" x="2.1436" y="15" width="37.7128" height="34" filterUnits="userSpaceOnUse" color-interpolation-filters="sRGB">
<feFlood flood-opacity="0" result="BackgroundImageFix"/>
<feBlend mode="normal" in="SourceGraphic" in2="BackgroundImageFix" result="shape"/>
<feColorMatrix in="SourceAlpha" type="matrix" values="0 0 0 0 0 0 0 0 0 0 0 0 0 0 0 0 0 0 127 0" result="hardAlpha"/>
<feOffset dx="20" dy="20"/>
<feGaussianBlur stdDeviation="5"/>
<feComposite in2="hardAlpha" operator="arithmetic" k2="-1" k3="1"/>
<feColorMatrix type="matrix" values="0 0 0 0 0.913725 0 0 0 0 0.952941 0 0 0 0 0.333333 0 0 0 0.1 0"/>
<feBlend mode="normal" in2="shape" result="effect1_innerShadow_1_8"/>
</filter>
<filter id="filter1_i_1_8" x="2.1436" y="1" width="37.7128" height="34" filterUnits="userSpaceOnUse" color-interpolation-filters="sRGB">
<feFlood flood-opacity="0" result="BackgroundImageFix"/>
<feBlend mode="normal" in="SourceGraphic" in2="BackgroundImageFix" result="shape"/>
<feColorMatrix in="SourceAlpha" type="matrix" values="0 0 0 0 0 0 0 0 0 0 0 0 0 0 0 0 0 0 127 0" result="hardAlpha"/>
<feOffset dx="20" dy="20"/>
<feGaussianBlur stdDeviation="5"/>
<feComposite in2="hardAlpha" operator="arithmetic" k2="-1" k3="1"/>
<feColorMatrix type="matrix" values="0 0 0 0 0.913725 0 0 0 0 0.952941 0 0 0 0 0.333333 0 0 0 0.1 0"/>
<feBlend mode="normal" in2="shape" result="effect1_innerShadow_1_8"/>
</filter>
</defs>
</svg>
