<svg width="231" height="40" viewBox="0 0 231 40" fill="none" xmlns="http://www.w3.org/2000/svg">
<g filter="url(#filter0_i_1_8)">
<path d="M32.75 20.8799V29.1191L20 33.6729L7.25 29.1191V20.8799L20 16.3262L32.75 20.8799Z" stroke="#E9F355" stroke-width="2.5"/>
</g>
<g filter="url(#filter1_i_1_8)">
<path d="M32.75 8.87988V17.1191L20 21.6729L7.25 17.1191V8.87988L20 4.32617L32.75 8.87988Z" stroke="#E9F355" stroke-opacity="0.5" stroke-width="2.5"/>
</g>
<path d="M62.06 13.64H58.964C58.892 10.28 56.744 8.6 52.52 8.6C50.792 8.6 49.4 8.996 48.344 9.788C47.288 10.556 46.76 11.576 46.76 12.848C46.76 13.808 47.072 14.576 47.696 15.152C48.344 15.704 49.448 16.184 51.008 16.592L57.128 18.176C61.016 19.208 62.96 21.368 62.96 24.656C62.96 27.032 62.012 28.964 60.116 30.452C58.436 31.748 56.024 32.396 52.88 32.396C48.896 32.396 46.004 31.196 44.204 28.796C43.244 27.5 42.74 25.76 42.692 23.576H45.788V23.648C45.788 25.52 46.424 26.972 47.696 28.004C48.992 29.012 50.792 29.516 53.096 29.516C55.208 29.516 56.78 29.168 57.812 28.472C59.036 27.632 59.648 26.456 59.648 24.944C59.648 23.024 58.076 21.668 54.932 20.876L48.524 19.22C45.164 18.356 43.484 16.376 43.484 13.28C43.484 10.832 44.408 8.936 46.256 7.592C47.864 6.416 49.988 5.828 52.628 5.828C56.372 5.828 59.048 6.92 60.656 9.104C61.592 10.376 62.06 11.756 62.06 13.244C62.06 13.316 62.06 13.448 62.06 13.64ZM74.3098 13.496V15.872H70.5298V28.184C70.5298 28.616 70.6738 28.988 70.9618 29.3C71.2738 29.588 71.6698 29.732 72.1498 29.732C72.6058 29.732 73.3018 29.624 74.2378 29.408L74.5618 32C73.0738 32.264 71.9458 32.396 71.1778 32.396C68.8018 32.396 67.6138 31.424 67.6138 29.48V15.872H65.0938V13.496H67.6138V9.716L70.5298 8.384V13.496H74.3098ZM84.9973 13.1C87.7813 13.1 89.9053 14.072 91.3693 16.016C92.6653 17.696 93.3133 19.976 93.3133 22.856C93.3133 26.072 92.4733 28.52 90.7933 30.2C89.3533 31.664 87.4093 32.396 84.9613 32.396C82.1293 32.396 79.9693 31.448 78.4813 29.552C77.1853 27.896 76.5373 25.664 76.5373 22.856C76.5373 19.592 77.3893 17.084 79.0933 15.332C80.5573 13.844 82.5253 13.1 84.9973 13.1ZM84.9973 15.8C83.3173 15.8 81.9973 16.436 81.0373 17.708C80.0773 18.956 79.5973 20.672 79.5973 22.856C79.5973 25.136 80.1373 26.876 81.2173 28.076C82.1533 29.132 83.4013 29.66 84.9613 29.66C86.6173 29.66 87.9013 29.06 88.8133 27.86C89.7493 26.66 90.2173 24.992 90.2173 22.856C90.2173 20.504 89.6893 18.704 88.6333 17.456C87.7213 16.352 86.5093 15.8 84.9973 15.8ZM111.562 19.688H108.61C108.25 17.096 106.786 15.8 104.218 15.8C102.61 15.8 101.35 16.436 100.438 17.708C99.5257 18.98 99.0697 20.744 99.0697 23C99.0697 25.232 99.6097 26.936 100.69 28.112C101.602 29.144 102.826 29.66 104.362 29.66C106.834 29.66 108.31 28.316 108.79 25.628H111.778C111.586 27.932 110.758 29.672 109.294 30.848C108.022 31.88 106.354 32.396 104.29 32.396C101.578 32.396 99.4657 31.436 97.9537 29.516C96.6577 27.86 96.0097 25.688 96.0097 23C96.0097 19.784 96.8617 17.264 98.5657 15.44C100.03 13.88 101.926 13.1 104.254 13.1C106.942 13.1 108.958 14 110.302 15.8C110.998 16.736 111.418 18.032 111.562 19.688ZM117.581 6.224V21.344L125.429 13.496H129.245L122.801 19.868L130.361 32H126.725L120.461 21.956L117.581 24.764V32H114.665V6.224H117.581Z" fill="#FAFAFA"/>
<path d="M151.357 13.64H148.261C148.189 10.28 146.041 8.6 141.817 8.6C140.089 8.6 138.697 8.996 137.641 9.788C136.585 10.556 136.057 11.576 136.057 12.848C136.057 13.808 136.369 14.576 136.993 15.152C137.641 15.704 138.745 16.184 140.305 16.592L146.425 18.176C150.313 19.208 152.257 21.368 152.257 24.656C152.257 27.032 151.309 28.964 149.413 30.452C147.733 31.748 145.321 32.396 142.177 32.396C138.193 32.396 135.301 31.196 133.501 28.796C132.541 27.5 132.037 25.76 131.989 23.576H135.085V23.648C135.085 25.52 135.721 26.972 136.993 28.004C138.289 29.012 140.089 29.516 142.393 29.516C144.505 29.516 146.077 29.168 147.109 28.472C148.333 27.632 148.945 26.456 148.945 24.944C148.945 23.024 147.373 21.668 144.229 20.876L137.821 19.22C134.461 18.356 132.781 16.376 132.781 13.28C132.781 10.832 133.705 8.936 135.553 7.592C137.161 6.416 139.285 5.828 141.925 5.828C145.669 5.828 148.345 6.92 149.953 9.104C150.889 10.376 151.357 11.756 151.357 13.244C151.357 13.316 151.357 13.448 151.357 13.64ZM171.995 23.612H158.351C158.375 25.196 158.711 26.456 159.359 27.392C160.391 28.904 161.879 29.66 163.823 29.66C166.223 29.66 167.843 28.52 168.683 26.24H171.635C171.251 28.184 170.363 29.696 168.971 30.776C167.579 31.856 165.827 32.396 163.715 32.396C160.907 32.396 158.759 31.436 157.271 29.516C155.951 27.836 155.291 25.616 155.291 22.856C155.291 19.664 156.155 17.18 157.883 15.404C159.395 13.868 161.351 13.1 163.751 13.1C165.503 13.1 167.039 13.52 168.359 14.36C169.703 15.2 170.663 16.352 171.239 17.816C171.743 19.064 171.995 20.96 171.995 23.504V23.612ZM168.827 21.2C168.827 19.592 168.347 18.296 167.387 17.312C166.451 16.304 165.239 15.8 163.751 15.8C162.239 15.8 161.003 16.292 160.043 17.276C159.107 18.236 158.579 19.544 158.459 21.2H168.827ZM176.023 13.496H178.759V16.628C180.247 14.276 182.287 13.1 184.879 13.1C186.679 13.1 188.107 13.556 189.163 14.468C190.219 15.356 190.747 16.556 190.747 18.068V32H187.831V19.256C187.831 18.152 187.483 17.276 186.787 16.628C186.115 15.98 185.191 15.656 184.015 15.656C182.479 15.656 181.255 16.22 180.343 17.348C179.431 18.476 178.975 19.976 178.975 21.848V32H176.023V13.496ZM208.815 18.572H205.575C205.479 16.724 204.243 15.8 201.867 15.8C200.643 15.8 199.671 16.04 198.951 16.52C198.255 16.976 197.907 17.6 197.907 18.392C197.907 19.592 199.047 20.456 201.327 20.984L204.171 21.632C206.019 22.064 207.351 22.676 208.167 23.468C208.983 24.26 209.391 25.34 209.391 26.708C209.391 28.46 208.707 29.852 207.339 30.884C205.971 31.892 204.123 32.396 201.795 32.396C199.251 32.396 197.319 31.796 195.999 30.596C194.895 29.612 194.307 28.304 194.235 26.672H197.583C197.775 27.512 198.039 28.124 198.375 28.508C199.023 29.276 200.235 29.66 202.011 29.66C203.331 29.66 204.375 29.42 205.143 28.94C205.935 28.436 206.331 27.776 206.331 26.96C206.331 25.736 205.383 24.896 203.487 24.44L200.715 23.792C198.603 23.288 197.127 22.688 196.287 21.992C195.327 21.2 194.847 20.06 194.847 18.572C194.847 16.892 195.483 15.56 196.755 14.576C198.051 13.592 199.779 13.1 201.939 13.1C204.195 13.1 205.947 13.664 207.195 14.792C208.275 15.776 208.815 17.036 208.815 18.572ZM228.983 23.612H215.339C215.363 25.196 215.699 26.456 216.347 27.392C217.379 28.904 218.867 29.66 220.811 29.66C223.211 29.66 224.831 28.52 225.671 26.24H228.623C228.239 28.184 227.351 29.696 225.959 30.776C224.567 31.856 222.815 32.396 220.703 32.396C217.895 32.396 215.747 31.436 214.259 29.516C212.939 27.836 212.279 25.616 212.279 22.856C212.279 19.664 213.143 17.18 214.871 15.404C216.383 13.868 218.339 13.1 220.739 13.1C222.491 13.1 224.027 13.52 225.347 14.36C226.691 15.2 227.651 16.352 228.227 17.816C228.731 19.064 228.983 20.96 228.983 23.504V23.612ZM225.815 21.2C225.815 19.592 225.335 18.296 224.375 17.312C223.439 16.304 222.227 15.8 220.739 15.8C219.227 15.8 217.991 16.292 217.031 17.276C216.095 18.236 215.567 19.544 215.447 21.2H225.815Z" fill="#E9F355"/>
<defs>
<filter id="filter0_i_1_8" x="6" y="15" width="38" height="30" filterUnits="userSpaceOnUse" color-interpolation-filters="sRGB">
<feFlood flood-opacity="0" result="BackgroundImageFix"/>
<feBlend mode="normal" in="SourceGraphic" in2="BackgroundImageFix" result="shape"/>
<feColorMatrix in="SourceAlpha" type="matrix" values="0 0 0 0 0 0 0 0 0 0 0 0 0 0 0 0 0 0 127 0" result="hardAlpha"/>
<feOffset dx="20" dy="20"/>
<feGaussianBlur stdDeviation="5"/>
<feComposite in2="hardAlpha" operator="arithmetic" k2="-1" k3="1"/>
<feColorMatrix type="matrix" values="0 0 0 0 0.913725 0 0 0 0 0.952941 0 0 0 0 0.333333 0 0 0 0.1 0"/>
<feBlend mode="normal" in2="shape" result="effect1_innerShadow_1_8"/>
</filter>
<filter id="filter1_i_1_8" x="6" y="3" width="38" height="30" filterUnits="userSpaceOnUse" color-interpolation-filters="sRGB">
<feFlood flood-opacity="0" result="BackgroundImageFix"/>
<feBlend mode="normal" in="SourceGraphic" in2="BackgroundImageFix" result="shape"/>
<feColorMatrix in="SourceAlpha" type="matrix" values="0 0 0 0 0 0 0 0 0 0 0 0 0 0 0 0 0 0 127 0" result="hardAlpha"/>
<feOffset dx="20" dy="20"/>
<feGaussianBlur stdDeviation="5"/>
<feComposite in2="hardAlpha" operator="arithmetic" k2="-1" k3="1"/>
<feColorMatrix type="matrix" values="0 0 0 0 0.913725 0 0 0 0 0.952941 0 0 0 0 0.333333 0 0 0 0.1 0"/>
<feBlend mode="normal" in2="shape" result="effect1_innerShadow_1_8"/>
</filter>
</defs>
</svg>
